<svg width="70" height="70" viewBox="0 0 70 70" fill="none" xmlns="http://www.w3.org/2000/svg">
<circle cx="35" cy="35" r="35" fill="#F9B300"/>
<path d="M55.2977 25.1494L52.5108 21.5527C52.1376 21.0711 51.5763 20.7949 50.9706 20.7949H48.6692C48.452 20.3906 48.0278 20.1153 47.5411 20.1153H44.9479L37.3798 17.5685C37.2017 17.5086 37.0197 17.4647 36.8351 17.4362L37.2091 15.5487C37.2847 15.1668 37.1879 14.7751 36.9433 14.4739C36.6989 14.1728 36.3374 14 35.9516 14H33.5554C33.1697 14 32.8083 14.1727 32.5637 14.4738C32.3191 14.7749 32.2222 15.1666 32.2979 15.5486L32.6718 17.4362C32.4874 17.4647 32.3053 17.5086 32.1273 17.5685L24.5591 20.1154H21.9659C21.3535 20.1154 20.7688 20.4107 20.4015 20.9051L19.1901 22.5359C18.9737 22.8271 18.9395 23.2104 19.1007 23.536C19.262 23.8616 19.5862 24.0639 19.9468 24.0639H20.9525C20.9726 24.0639 20.9917 24.0737 21.0038 24.0901L25.1667 29.7996L25.5153 32.6154C25.5539 32.9267 25.8164 33.1545 26.1193 33.1545C26.1445 33.1545 26.17 33.1528 26.1957 33.1496C26.5295 33.1075 26.7664 32.8 26.7248 32.4629L26.3622 29.5347L26.5962 21.346H29.5044L31.3094 35.9245C31.3311 36.0995 31.3762 36.2664 31.4395 36.4234H27.2713C27.2392 36.4234 27.2121 36.3992 27.2082 36.3671L27.0295 34.9239C26.9878 34.5866 26.6838 34.3474 26.3492 34.3897C26.0154 34.4319 25.7784 34.7393 25.8201 35.0765L25.9988 36.5198C26.0789 37.1663 26.626 37.6539 27.2713 37.6539H27.4139V41.1798H27.2568C26.6169 41.1798 26.0835 41.6435 25.9885 42.2825L24.2872 53.7329C24.2026 54.3019 24.3674 54.8781 24.7392 55.3141C25.111 55.75 25.6512 56 26.2209 56H27.7083C28.0449 56 28.3177 55.7245 28.3177 55.3848C28.3177 55.045 28.0449 54.7695 27.7083 54.7695H26.2209C26.0031 54.7695 25.8049 54.6777 25.6627 54.5111C25.5206 54.3445 25.4602 54.133 25.4924 53.9154L25.5865 53.2821H43.9204L44.0144 53.9154C44.0467 54.1329 43.9863 54.3444 43.8441 54.5111C43.7019 54.6777 43.5037 54.7695 43.2859 54.7695H30.1459C29.8093 54.7695 29.5366 55.045 29.5366 55.3848C29.5366 55.7245 29.8093 56 30.1459 56H43.2859C43.8558 56 44.3958 55.75 44.7676 55.3141C45.1395 54.8782 45.3042 54.3019 45.2198 53.733L43.5185 42.2824C43.4235 41.6435 42.8902 41.1798 42.2502 41.1798H42.0932V37.6537H42.2357C42.881 37.6537 43.4281 37.1662 43.5082 36.5195L44.6298 27.4613H46.6055C46.8587 27.4613 47.106 27.4126 47.3406 27.3165L48.4764 26.8513C49.3597 26.4897 50.3711 26.7779 50.9363 27.5526C51.3038 28.0564 51.4384 28.6959 51.3054 29.3071L49.3237 38.4113C49.3172 38.441 49.2917 38.4618 49.2615 38.4618H47.5411C46.834 38.4618 46.2587 39.0426 46.2587 39.7565V41.1154C46.2587 41.8293 46.834 42.4102 47.5411 42.4102H50.9476C51.8562 42.4102 52.6382 41.7872 52.8494 40.8951L55.9084 27.9783C56.1436 26.9848 55.921 25.9538 55.2977 25.1494ZM47.6048 21.4102V22.9851C47.6048 23.3475 47.3481 23.6557 46.9943 23.7178L45.0511 24.0591L45.3869 21.3459H47.5411C47.5762 21.3459 47.6048 21.3747 47.6048 21.4102ZM33.5062 15.254C33.5252 15.2305 33.5479 15.2305 33.5554 15.2305H35.9516C35.9591 15.2305 35.9818 15.2305 36.0009 15.254C36.02 15.2775 36.0156 15.2999 36.0141 15.3073L35.6 17.3974H33.907L33.4929 15.3073C33.4915 15.3 33.4871 15.2776 33.5062 15.254ZM20.9525 22.8334H20.4925L21.3766 21.6433C21.5149 21.4571 21.7352 21.3459 21.9659 21.3459H25.3768L25.1935 27.7608L21.9854 23.3607C21.7447 23.0305 21.3586 22.8334 20.9525 22.8334ZM32.5128 18.7358C32.7254 18.6642 32.947 18.628 33.1713 18.628H36.3358C36.5601 18.628 36.7816 18.6642 36.9943 18.7359L41.0938 20.1154H28.4133L32.5128 18.7358ZM32.5187 35.7717L30.7326 21.3459H38.7744L36.9884 35.7717C36.9424 36.1431 36.628 36.4232 36.2574 36.4232H33.2497C32.8789 36.4232 32.5646 36.1432 32.5187 35.7717ZM27.1937 42.4648C27.1985 42.4332 27.2249 42.4101 27.2567 42.4101H31.4588C31.4006 42.5529 31.3569 42.7033 31.3335 42.861L29.968 52.0516H25.7694L27.1937 42.4648ZM37.0149 43.0436L38.3533 52.0515H31.2005L32.5389 43.0435C32.5925 42.6825 32.9057 42.4101 33.2674 42.4101H36.2865C36.6481 42.4101 36.9613 42.6825 37.0149 43.0436ZM42.3133 42.4648L43.7376 52.0516H39.5857L38.2202 42.8611C38.1968 42.7035 38.153 42.5529 38.0948 42.4102H42.2502C42.2821 42.4101 42.3086 42.4332 42.3133 42.4648ZM40.8745 41.1797H28.6326V37.6537H40.8745V41.1797ZM42.2989 36.3669C42.2949 36.399 42.2678 36.4232 42.2358 36.4232H38.0676C38.131 36.2663 38.1761 36.0994 38.1978 35.9243L40.0026 21.3459H44.1587L42.2989 36.3669ZM54.7231 27.6921L51.6641 40.6089C51.5846 40.945 51.29 41.1797 50.9477 41.1797H47.5411C47.506 41.1797 47.4775 41.1508 47.4775 41.1153V39.7564C47.4775 39.721 47.5061 39.6922 47.5411 39.6922H49.2615C49.8591 39.6922 50.3859 39.2646 50.5141 38.6753L52.4957 29.5713C52.7041 28.6138 52.4934 27.612 51.9175 26.8229C51.0215 25.595 49.4178 25.1377 48.0182 25.7112L46.8824 26.1764C46.794 26.2126 46.7009 26.2309 46.6055 26.2309H44.7822L44.893 25.3358L47.2032 24.9302C48.1421 24.7653 48.8235 23.9474 48.8235 22.9852V22.0254H50.9706C51.1988 22.0254 51.4102 22.1295 51.5508 22.3109L54.3378 25.9076C54.731 26.4149 54.8714 27.0654 54.7231 27.6921Z" fill="black"/>
</svg>
