<svg width="21" height="19" viewBox="0 0 21 19" fill="none" xmlns="http://www.w3.org/2000/svg">
<path d="M1.80609 16.0602C-0.023562 12.8429 1.22147 7.79684 5.00654 4.02143C9.30487 -0.264162 15.2482 -1.28587 18.2827 1.73945C18.2863 1.74341 18.2893 1.7479 18.2941 1.75192C17.6868 3.51381 15.7529 7.26265 9.95576 9.28945C4.64533 11.1471 2.59682 14.1005 1.80609 16.0602ZM19.1362 2.84081C18.6763 3.91077 17.8757 5.30904 16.4964 6.68435C15.1099 8.06746 13.1394 9.42587 10.3482 10.4022C4.6832 12.3831 3.10039 15.6259 2.65877 17.1974C2.67963 17.2184 2.69757 17.2401 2.71785 17.2605C5.75204 20.2859 11.6957 19.2643 15.9937 14.978C19.8181 11.1643 21.0481 6.05278 19.1362 2.84081Z" fill="#505050"/>
</svg>
